<svg width="270" height="425" viewBox="0 0 270 425" fill="none" xmlns="http://www.w3.org/2000/svg">
<path d="M134.512 0C60.2503 0 0 69.6505 0 155.641C0 254.092 84.2102 372.102 119.38 417.078C127.646 427.641 141.378 427.641 149.645 417.078C184.814 372.102 269.024 254.092 269.024 155.641C269.024 69.6505 208.774 0 134.512 0Z" fill="url(#paint0_linear_36_961)"/>
<g filter="url(#filter0_d_36_961)">
<path d="M100.648 43.4658C93.4088 43.4658 86.4663 46.3415 81.3475 51.4603C76.2287 56.5791 73.353 63.5217 73.353 70.7607V84.4082C73.353 91.6472 76.2287 98.5898 81.3475 103.709C86.4663 108.827 93.4088 111.703 100.648 111.703C107.887 111.703 114.829 108.827 119.948 103.709C125.067 98.5898 127.943 91.6472 127.943 84.4082V70.7607C127.943 63.5217 125.067 56.5791 119.948 51.4603C114.829 46.3415 107.887 43.4658 100.648 43.4658ZM168.885 43.4658C161.646 43.4658 154.703 46.3415 149.585 51.4603C144.466 56.5791 141.59 63.5217 141.59 70.7607V84.4082C141.59 91.6472 144.466 98.5898 149.585 103.709C154.703 108.827 161.646 111.703 168.885 111.703C176.124 111.703 183.067 108.827 188.185 103.709C193.304 98.5898 196.18 91.6472 196.18 84.4082V70.7607C196.18 63.5217 193.304 56.5791 188.185 51.4603C183.067 46.3415 176.124 43.4658 168.885 43.4658ZM59.7055 111.703C52.4665 111.703 45.5239 114.579 40.4051 119.698C35.2863 124.816 32.4106 131.759 32.4106 138.998L32.4106 145.822C32.4106 153.061 35.2863 160.003 40.4051 165.122C45.5239 170.241 52.4665 173.117 59.7055 173.117C66.9446 173.117 73.8872 170.241 79.0059 165.122C84.1247 160.003 87.0004 153.061 87.0004 145.822V138.998C87.0004 131.759 84.1247 124.816 79.0059 119.698C73.8872 114.579 66.9446 111.703 59.7055 111.703ZM209.827 111.703C202.588 111.703 195.646 114.579 190.527 119.698C185.408 124.816 182.533 131.759 182.533 138.998V145.822C182.533 153.061 185.408 160.003 190.527 165.122C195.646 170.241 202.588 173.117 209.827 173.117C217.066 173.117 224.009 170.241 229.128 165.122C234.247 160.003 237.122 153.061 237.122 145.822V138.998C237.122 131.759 234.247 124.816 229.128 119.698C224.009 114.579 217.066 111.703 209.827 111.703ZM163.604 149.629C160.099 145.373 155.696 141.945 150.71 139.592C145.725 137.239 140.28 136.018 134.766 136.018C129.253 136.018 123.808 137.239 118.823 139.592C113.837 141.945 109.434 145.373 105.929 149.629L66.1198 197.982C49.6201 218.003 63.868 248.177 89.7981 248.177C93.5103 248.177 97.1678 247.318 100.47 245.653L105.384 243.196C114.505 238.63 124.566 236.253 134.766 236.253C144.967 236.253 155.028 238.63 164.149 243.196L169.063 245.653C172.365 247.318 176.023 248.177 179.735 248.177C205.665 248.177 219.913 218.003 203.427 197.982L163.604 149.629Z" fill="url(#paint1_linear_36_961)"/>
</g>
<defs>
<filter id="filter0_d_36_961" x="28.4106" y="43.4658" width="212.712" height="212.712" filterUnits="userSpaceOnUse" color-interpolation-filters="sRGB">
<feFlood flood-opacity="0" result="BackgroundImageFix"/>
<feColorMatrix in="SourceAlpha" type="matrix" values="0 0 0 0 0 0 0 0 0 0 0 0 0 0 0 0 0 0 127 0" result="hardAlpha"/>
<feOffset dy="4"/>
<feGaussianBlur stdDeviation="2"/>
<feComposite in2="hardAlpha" operator="out"/>
<feColorMatrix type="matrix" values="0 0 0 0 0 0 0 0 0 0 0 0 0 0 0 0 0 0 0.25 0"/>
<feBlend mode="normal" in2="BackgroundImageFix" result="effect1_dropShadow_36_961"/>
<feBlend mode="normal" in="SourceGraphic" in2="effect1_dropShadow_36_961" result="shape"/>
</filter>
<linearGradient id="paint0_linear_36_961" x1="134.512" y1="0" x2="134.512" y2="425" gradientUnits="userSpaceOnUse">
<stop offset="0.139423" stop-color="#F49090"/>
<stop offset="0.528846" stop-color="#FAB29C"/>
<stop offset="0.985577" stop-color="#EEA0B1"/>
</linearGradient>
<linearGradient id="paint1_linear_36_961" x1="134.766" y1="43.4658" x2="134.766" y2="248.177" gradientUnits="userSpaceOnUse">
<stop stop-color="white"/>
<stop offset="0.447115" stop-color="#F7F7F7"/>
<stop offset="1" stop-color="#E0F2F1"/>
</linearGradient>
</defs>
</svg>
